<svg xmlns="http://www.w3.org/2000/svg" viewBox="0 0 128 128">
  <defs>
    <linearGradient id="bg" x1="0%" y1="0%" x2="100%" y2="100%">
      <stop offset="0%" stop-color="#1a8fc4"/>
      <stop offset="100%" stop-color="#0d6e99"/>
    </linearGradient>
    <linearGradient id="spark" x1="0%" y1="0%" x2="100%" y2="100%">
      <stop offset="0%" stop-color="#FFD700"/>
      <stop offset="100%" stop-color="#FFA500"/>
    </linearGradient>
  </defs>

  <rect x="4" y="4" width="120" height="120" rx="20" ry="20" fill="url(#bg)"/>

  <g transform="translate(28, 18)">
    <rect x="0" y="0" width="52" height="66" rx="4" ry="4" fill="#ffffff" opacity="0.95"/>
    <rect x="8" y="12" width="36" height="4" rx="2" fill="#1a8fc4" opacity="0.6"/>
    <rect x="8" y="22" width="28" height="4" rx="2" fill="#1a8fc4" opacity="0.4"/>
    <rect x="8" y="32" width="32" height="4" rx="2" fill="#1a8fc4" opacity="0.5"/>
    <rect x="8" y="42" width="20" height="4" rx="2" fill="#1a8fc4" opacity="0.3"/>
    <rect x="8" y="52" width="24" height="4" rx="2" fill="#1a8fc4" opacity="0.4"/>
  </g>

  <g transform="translate(52, 48)">
    <path d="M 0,20 L 36,20 L 28,10 M 36,20 L 28,30"
          stroke="#FFD700" stroke-width="4.5" stroke-linecap="round" stroke-linejoin="round" fill="none"/>
  </g>

  <g transform="translate(82, 16)" fill="url(#spark)">
    <polygon points="14,0 17.5,9.5 28,11 20,18 22,28 14,23 6,28 8,18 0,11 10.5,9.5" />
  </g>

  <circle cx="96" cy="48" r="3" fill="#FFD700" opacity="0.8"/>
  <circle cx="104" cy="32" r="2" fill="#FFD700" opacity="0.6"/>
  <circle cx="72" cy="104" r="2.5" fill="#FFD700" opacity="0.5"/>
</svg>
